<svg id="Layer_3" enable-background="new 0 0 64 64" height="512" viewBox="0 0 64 64" width="512" xmlns="http://www.w3.org/2000/svg"><g><path d="m36 26h6v8h-6z" fill="#78b75b"/><path d="m56 34h6v20h-6z" fill="#78b75b"/><path d="m16 48h6v6h-6z" fill="#c66b60"/><path d="m46 6h6v32h-6z" fill="#c66b60"/><path d="m6 22h6v12h-6z" fill="#f5b953"/><path d="m26 22h6v22h-6z" fill="#f5b953"/><g><path d="m63 63h-61c-.553 0-1-.447-1-1v-61h2v60h60z" fill="#4472b2"/></g><g><path d="m12 35h-6c-.553 0-1-.447-1-1v-12c0-.553.447-1 1-1h6c.553 0 1 .447 1 1v12c0 .553-.447 1-1 1zm-5-2h4v-10h-4z" fill="#4472b2"/></g><g><path d="m8 1h2v21h-2z" fill="#4472b2"/></g><g><path d="m8 34h2v28h-2z" fill="#4472b2"/></g><g><path d="m22 55h-6c-.553 0-1-.447-1-1v-6c0-.553.447-1 1-1h6c.553 0 1 .447 1 1v6c0 .553-.447 1-1 1zm-5-2h4v-4h-4z" fill="#4472b2"/></g><g><path d="m18 1h2v47h-2z" fill="#4472b2"/></g><g><path d="m18 54h2v8h-2z" fill="#4472b2"/></g><g><path d="m32 45h-6c-.553 0-1-.447-1-1v-22c0-.553.447-1 1-1h6c.553 0 1 .447 1 1v22c0 .553-.447 1-1 1zm-5-2h4v-20h-4z" fill="#4472b2"/></g><g><path d="m28 1h2v21h-2z" fill="#4472b2"/></g><g><path d="m28 44h2v18h-2z" fill="#4472b2"/></g><g><path d="m42 35h-6c-.553 0-1-.447-1-1v-8c0-.553.447-1 1-1h6c.553 0 1 .447 1 1v8c0 .553-.447 1-1 1zm-5-2h4v-6h-4z" fill="#4472b2"/></g><g><path d="m38 1h2v25h-2z" fill="#4472b2"/></g><g><path d="m38 34h2v28h-2z" fill="#4472b2"/></g><g><path d="m52 39h-6c-.553 0-1-.447-1-1v-32c0-.553.447-1 1-1h6c.553 0 1 .447 1 1v32c0 .553-.447 1-1 1zm-5-2h4v-30h-4z" fill="#4472b2"/></g><g><path d="m48 1h2v5h-2z" fill="#4472b2"/></g><g><path d="m48 38h2v24h-2z" fill="#4472b2"/></g><g><path d="m62 55h-6c-.553 0-1-.447-1-1v-20c0-.553.447-1 1-1h6c.553 0 1 .447 1 1v20c0 .553-.447 1-1 1zm-5-2h4v-18h-4z" fill="#4472b2"/></g><g><path d="m58 1h2v33h-2z" fill="#4472b2"/></g><g><path d="m58 54h2v8h-2z" fill="#4472b2"/></g></g></svg>